<svg width="1664" height="1707" viewBox="0 0 1664 1707" fill="none" xmlns="http://www.w3.org/2000/svg">
<g filter="url(#filter0_d_1_3)">
<path d="M821.067 3.33338C778.8 18.1334 752.533 78.1334 747.2 172.4C746.133 190.533 746 190.667 733.733 190.667C717.467 190.667 680.267 196 658 201.467C573.2 222.533 502.4 270.533 446.4 344.933C394.4 414.133 356.133 508.4 343.467 599.333C342.267 607.333 340.133 628.667 338.667 646.667C308.133 1017.33 259.6 1233.07 186.267 1324.67C150 1369.87 109.733 1388.13 35.3333 1392.8C14.6666 1394 8.26662 1398.13 2.53328 1413.73C-0.533384 1422 -0.533384 1424.27 2.13328 1431.87C6.93328 1445.73 12.3999 1451.2 24 1453.33C33.7333 1455.2 1630.27 1455.2 1640 1453.33C1651.6 1451.2 1657.07 1445.73 1661.87 1431.87C1664.53 1424.27 1664.53 1422 1661.47 1413.73C1655.73 1398.13 1649.33 1394 1628.67 1392.67C1566.67 1388.8 1528.27 1373.87 1495.33 1340.8C1442.8 1288.13 1404 1186.4 1372.8 1020C1354.4 921.733 1337.47 784.533 1325.33 637.333C1322.13 597.467 1319.73 578.533 1315.2 556.667C1298.93 476.933 1262 397.067 1213.6 336C1198.4 316.933 1160.53 279.733 1142.53 266.267C1092.93 229.2 1041.07 206.8 980.267 196C966.4 193.6 939.867 190.667 930.933 190.667C918.667 190.667 917.333 189.6 917.333 179.6C917.333 167.333 914.933 137.2 912.533 121.333C906.267 77.4667 890.8 39.3334 871.467 19.6001C862.933 11.0667 855.733 6.40005 844.533 2.66672C834.667 -0.666616 832.133 -0.533283 821.067 3.33338Z" fill="white"/>
<path d="M668.8 1491.73C668.533 1492.27 667.067 1497.87 665.733 1504C662.4 1519.73 662.4 1552.4 665.733 1568C678.133 1625.73 715.2 1670.8 768 1692.4C782 1698.27 796 1701.73 816.4 1704.8C831.2 1706.93 832.8 1706.93 847.733 1704.8C868 1701.73 882 1698.27 896 1692.4C948.8 1670.8 985.867 1625.73 998.267 1568C1002.53 1548.27 1001.2 1508.13 995.867 1493.6L994.667 1490.67H832.133C742.667 1490.67 669.2 1491.2 668.8 1491.73Z" fill="white"/>
</g>
<defs>
<filter id="filter0_d_1_3" x="-3.81934" y="0.291687" width="1671.64" height="1714.11" filterUnits="userSpaceOnUse" color-interpolation-filters="sRGB">
<feFlood flood-opacity="0" result="BackgroundImageFix"/>
<feColorMatrix in="SourceAlpha" type="matrix" values="0 0 0 0 0 0 0 0 0 0 0 0 0 0 0 0 0 0 127 0" result="hardAlpha"/>
<feOffset dy="4"/>
<feGaussianBlur stdDeviation="2"/>
<feComposite in2="hardAlpha" operator="out"/>
<feColorMatrix type="matrix" values="0 0 0 0 0 0 0 0 0 0 0 0 0 0 0 0 0 0 0.25 0"/>
<feBlend mode="normal" in2="BackgroundImageFix" result="effect1_dropShadow_1_3"/>
<feBlend mode="normal" in="SourceGraphic" in2="effect1_dropShadow_1_3" result="shape"/>
</filter>
</defs>
</svg>
